<?xml version="1.0" standalone="no"?>
<!DOCTYPE svg PUBLIC "-//W3C//DTD SVG 20010904//EN"
 "http://www.w3.org/TR/2001/REC-SVG-20010904/DTD/svg10.dtd">
<svg version="1.0" xmlns="http://www.w3.org/2000/svg"
 width="178.000000pt" height="178.000000pt" viewBox="0 0 178.000000 178.000000"
 preserveAspectRatio="xMidYMid meet">
<metadata>
Created by potrace 1.14, written by Peter Selinger 2001-2017
</metadata>
<g transform="translate(0.000000,178.000000) scale(0.100000,-0.100000)"
fill="#000000" stroke="none">
<path d="M489 1363 c-13 -9 -44 -35 -69 -58 -25 -24 -58 -50 -75 -58 -31 -17
-32 -16 22 -21 6 -1 15 -4 19 -8 4 -4 12 -4 18 0 6 3 29 8 50 9 51 3 60 13 11
13 -21 0 -35 3 -31 7 3 4 23 6 44 5 20 -1 51 5 67 13 17 9 22 13 13 11 -9 -3
-34 -8 -55 -11 l-38 -6 28 16 c15 9 27 20 27 26 0 6 7 8 16 5 9 -4 13 -2 8 5
-4 6 0 15 7 20 7 4 10 11 6 16 -4 4 -22 -9 -40 -29 -31 -35 -124 -85 -135 -73
-3 3 0 5 6 5 6 0 20 10 32 22 11 12 20 18 20 14 0 -5 7 -3 15 4 8 7 13 15 11
19 -3 4 11 17 30 30 33 23 37 23 94 11 33 -7 60 -14 60 -16 0 -7 -82 -79 -111
-97 -16 -10 -50 -22 -76 -27 l-48 -8 45 -1 c61 -1 105 22 185 96 55 51 62 60
38 54 -17 -5 -47 -2 -78 7 -77 22 -89 23 -116 5z"/>
<path d="M291 1177 c-26 -54 -26 -64 -1 -72 22 -7 40 1 40 17 0 7 -6 6 -15 -2
-18 -15 -19 -3 -4 37 28 73 13 88 -20 20z"/>
<path d="M535 896 c0 -123 3 -228 8 -232 4 -4 7 97 7 224 0 128 -3 232 -8 232
-4 0 -7 -101 -7 -224z"/>
<path d="M200 1075 c-7 -9 -10 -30 -7 -52 6 -47 35 -144 36 -122 1 8 -6 39
-15 68 -18 63 -12 98 19 111 22 9 22 9 1 9 -12 1 -27 -6 -34 -14z"/>
<path d="M324 1075 c-12 -8 -23 -13 -25 -12 -3 1 -2 -2 2 -6 3 -4 18 -3 32 4
55 25 72 -15 42 -101 -19 -54 -19 -98 1 -130 10 -17 13 -19 9 -5 -16 47 -15
84 5 134 37 94 -1 162 -66 116z"/>
<path d="M249 1025 c-1 -6 0 -14 1 -20 1 -5 4 -44 7 -86 4 -63 2 -82 -16 -117
-17 -34 -27 -42 -58 -47 -66 -11 -69 -13 -23 -14 25 0 52 5 61 12 32 24 54 86
58 165 1 7 5 11 10 8 14 -9 -4 59 -23 85 -9 13 -17 19 -17 14z"/>
<path d="M330 1000 c-6 -11 -12 -37 -14 -57 -2 -23 -8 -37 -15 -35 -7 1 -10
-2 -6 -8 3 -6 11 -8 16 -5 5 4 9 -2 9 -11 0 -17 47 -124 55 -124 2 0 -5 24
-15 54 -15 42 -18 69 -13 130 6 78 2 91 -17 56z"/>
<path d="M600 896 c0 -19 5 -38 10 -41 6 -3 10 2 10 12 0 11 6 25 13 32 10 10
9 12 -3 9 -8 -2 -14 3 -12 10 1 6 -2 12 -8 12 -5 0 -10 -15 -10 -34z"/>
<path d="M716 915 c-3 -8 -2 -15 3 -15 4 0 14 -12 21 -27 7 -16 15 -23 17 -16
4 11 -23 73 -31 73 -2 0 -6 -7 -10 -15z"/>
<path d="M795 896 c1 -50 15 -57 15 -8 0 23 -4 42 -8 42 -5 0 -8 -15 -7 -34z"/>
<path d="M850 889 c0 -24 4 -38 10 -34 6 3 10 22 10 41 0 19 -4 34 -10 34 -5
0 -10 -18 -10 -41z"/>
<path d="M900 916 c0 -8 -6 -17 -12 -19 -10 -4 -10 -6 0 -6 6 -1 12 -7 12 -15
0 -8 4 -18 10 -21 6 -4 9 10 7 35 -1 22 -5 40 -9 40 -5 0 -8 -6 -8 -14z"/>
<path d="M957 923 c-8 -17 -6 -62 3 -68 6 -4 10 10 10 34 0 39 -4 50 -13 34z"/>
<path d="M1010 896 c0 -19 5 -38 12 -42 8 -5 9 0 5 16 l-6 22 25 -23 c13 -12
24 -18 24 -12 0 5 -9 18 -20 28 -11 10 -20 24 -20 32 0 7 -4 13 -10 13 -5 0
-10 -15 -10 -34z"/>
<path d="M1045 920 c-3 -6 1 -7 9 -4 18 7 21 14 7 14 -6 0 -13 -4 -16 -10z"/>
<path d="M1127 918 c-6 -17 28 -75 36 -61 3 4 -3 23 -12 42 -13 24 -19 29 -24
19z"/>
<path d="M630 882 c0 -5 7 -15 15 -22 8 -7 15 -8 15 -2 0 5 -7 15 -15 22 -8 7
-15 8 -15 2z"/>
<path d="M696 875 c-9 -26 -7 -32 5 -12 6 10 9 21 6 23 -2 3 -7 -2 -11 -11z"/>
<path d="M1103 875 c-3 -9 -3 -18 -1 -21 3 -3 8 4 11 16 6 23 -1 27 -10 5z"/>
<path d="M203 843 c-10 -34 -10 -36 3 -19 12 17 20 56 11 56 -1 0 -7 -17 -14
-37z"/>
<path d="M1634 785 c3 -58 13 -67 18 -17 2 22 -2 44 -9 50 -9 9 -11 1 -9 -33z"/>
<path d="M608 793 c-15 -19 -13 -53 4 -53 5 0 8 6 5 13 -2 6 0 22 4 35 10 27
7 28 -13 5z"/>
<path d="M645 800 c3 -5 8 -10 11 -10 2 0 4 5 4 10 0 6 -5 10 -11 10 -5 0 -7
-4 -4 -10z"/>
<path d="M690 799 c0 -6 5 -7 10 -4 10 6 14 -6 11 -37 -1 -9 3 -19 9 -23 6 -4
10 8 10 32 0 32 -4 39 -20 40 -11 1 -20 -3 -20 -8z"/>
<path d="M740 799 c0 -5 5 -7 10 -4 6 3 10 8 10 11 0 2 -4 4 -10 4 -5 0 -10
-5 -10 -11z"/>
<path d="M790 791 c-15 -29 -13 -39 13 -52 20 -11 21 -11 8 4 -7 9 -11 28 -9
42 6 30 2 32 -12 6z"/>
<path d="M830 795 c7 -8 10 -24 7 -35 -7 -26 10 -26 18 0 7 21 -9 50 -27 50
-6 0 -5 -7 2 -15z"/>
<path d="M887 799 c7 -7 10 -26 8 -43 -4 -27 -4 -28 3 -6 7 22 9 23 15 7 4
-10 11 -15 17 -12 12 8 -26 65 -43 65 -8 0 -8 -3 0 -11z"/>
<path d="M947 796 c-5 -13 8 -78 14 -66 1 3 3 22 4 43 2 37 -8 50 -18 23z"/>
<path d="M1027 796 c-4 -9 -2 -16 4 -16 6 0 8 -4 5 -9 -3 -4 3 -16 14 -26 25
-22 25 -11 1 34 -14 26 -19 30 -24 17z"/>
<path d="M1095 800 c4 -6 11 -8 16 -5 5 4 9 -10 9 -30 0 -22 4 -34 10 -30 6 3
10 19 10 35 0 15 6 31 13 33 6 3 -5 6 -26 6 -24 1 -36 -3 -32 -9z"/>
<path d="M1197 792 c-15 -16 -15 -20 -1 -40 8 -12 20 -22 25 -22 6 0 4 7 -5
15 -11 12 -13 22 -6 40 11 30 9 31 -13 7z"/>
<path d="M1240 795 c7 -8 10 -25 7 -37 -5 -19 -4 -20 9 -6 13 12 14 20 5 37
-7 11 -17 21 -23 21 -7 0 -6 -5 2 -15z"/>
<path d="M1317 790 c-3 -11 -1 -18 4 -14 5 3 14 -7 20 -23 6 -15 13 -23 16
-16 4 11 -23 73 -31 73 -2 0 -6 -9 -9 -20z"/>
<path d="M1402 798 c-19 -19 -14 -46 11 -59 20 -11 21 -11 8 4 -7 9 -11 28 -9
42 6 29 6 29 -10 13z"/>
<path d="M1440 795 c7 -8 10 -24 7 -35 -7 -26 10 -26 18 0 7 21 -9 50 -27 50
-6 0 -5 -7 2 -15z"/>
<path d="M1500 768 c0 -44 15 -44 16 0 0 19 5 27 17 26 9 -1 17 2 17 7 0 5
-11 9 -25 9 -23 0 -25 -4 -25 -42z"/>
<path d="M1580 768 c0 -23 3 -39 6 -35 10 9 12 77 2 77 -4 0 -8 -19 -8 -42z"/>
<path d="M312 728 c0 -34 8 -60 26 -88 14 -21 28 -37 31 -35 2 3 -5 19 -17 35
-31 41 -27 49 8 15 35 -34 40 -27 8 10 -13 14 -31 45 -40 68 l-17 42 1 -47z"/>
<path d="M1007 755 c-4 -8 -3 -16 1 -19 4 -3 9 4 9 15 2 23 -3 25 -10 4z"/>
<path d="M246 726 c-10 -20 -23 -33 -28 -30 -4 3 -5 10 -2 16 4 7 2 8 -5 4 -9
-6 -9 -11 1 -23 11 -14 10 -15 -10 -9 -15 5 -22 3 -22 -5 0 -7 -3 -9 -6 -6 -4
4 -2 13 5 21 10 12 5 14 -31 12 -56 -4 -88 -14 -88 -30 0 -6 9 -12 19 -12 11
0 17 4 14 9 -3 5 4 6 16 2 12 -4 21 -2 21 4 0 6 8 11 18 11 14 0 15 -2 2 -10
-12 -8 -12 -10 5 -10 17 0 17 -2 5 -10 -9 -6 -10 -10 -3 -10 6 0 14 4 18 10 3
5 12 7 19 4 8 -3 17 -1 21 5 3 6 11 11 17 11 6 0 3 -10 -8 -22 -11 -13 -2 -9
24 11 28 22 42 40 41 54 -1 21 -2 21 -6 2 -6 -24 -22 -45 -34 -45 -5 0 -2 11
7 25 8 13 14 31 12 40 -2 11 -9 5 -22 -19z"/>
<path d="M1301 744 c0 -11 3 -14 6 -6 3 7 2 16 -1 19 -3 4 -6 -2 -5 -13z"/>
<path d="M640 740 c-9 -6 -10 -10 -3 -10 6 0 15 5 18 10 8 12 4 12 -15 0z"/>
<path d="M370 712 c0 -4 17 -18 38 -31 20 -13 51 -33 67 -43 l30 -20 -32 29
c-38 34 -103 75 -103 65z"/>
</g>
</svg>
